<svg width="167" height="105" viewBox="0 0 167 105" fill="none" xmlns="http://www.w3.org/2000/svg">
<path fill-rule="evenodd" clip-rule="evenodd" d="M90.7557 1.54625C79.9617 4.56025 70.7997 12.1073 65.9417 21.9873C63.5167 26.9203 62 28.6053 62 38.0003C62 47.4923 63.5027 49.0513 66.0497 54.2393C73.8647 70.1543 92.0117 78.8623 108.539 74.6283C111.992 73.7433 115.92 72.4413 117.269 71.7343L119.723 70.4492L112.002 61.7243C104.5 53.2463 104.157 53.0003 99.8747 53.0003C88.3817 53.0003 81.5217 41.3923 86.9177 31.0743C89.6367 25.8743 94.3777 23.0003 100.238 23.0003C103.987 23.0003 104.737 22.4833 110.754 15.7503C120.969 4.32125 120.639 5.48325 114.331 3.12325C106.704 0.269256 97.5267 -0.344744 90.7557 1.54625ZM21.9547 1.99525C12.6347 3.97725 4.53674 10.1823 1.71374 17.5043C0.0767446 21.7513 0.258745 31.1893 2.04274 34.6063C5.68974 41.5933 10.6367 44.4233 26.3327 48.5013C36.8217 51.2263 38.7317 52.2403 38.7317 55.0823C38.7317 60.0543 23.4787 59.7783 12.1737 54.6023L6.63274 52.0653L4.59174 56.7833C-0.821256 69.2973 -0.786255 69.1483 1.31574 70.6883C5.88674 74.0363 17.0107 76.4183 28.2317 76.4533C40.5317 76.4913 45.3007 75.3983 51.7907 71.0533C58.6867 66.4373 61.1497 62.0163 61.5227 53.5903C62.1087 40.3183 56.6407 34.8253 38.5347 30.4993C25.0377 27.2743 23.5097 26.5643 23.9207 23.7073C24.6597 18.5753 34.8477 17.8273 46.1917 22.0713C49.3147 23.2393 52.0117 24.0393 52.1857 23.8483C53.4827 22.4233 58.7607 7.85626 58.2687 7.06026C55.9817 3.35926 31.5597 -0.0467436 21.9547 1.99525ZM124.02 19.5313C115.336 29.1733 108.232 37.4733 108.232 37.9753C108.232 38.9223 132.354 66.3802 137.491 71.2812L140.406 74.0622L153.23 73.7812L166.054 73.5003L156.143 62.5703C139.429 44.1383 134.732 38.7353 134.732 37.9373C134.732 37.5163 141.707 29.4733 150.232 20.0643C158.757 10.6553 165.732 2.74125 165.732 2.47825C165.732 2.21525 159.899 2.00025 152.77 2.00025H139.807L124.02 19.5313Z" fill="white"/>
<path d="M38.6339 101.216C37.6379 101.216 36.6719 101.084 35.7359 100.82C34.8119 100.544 34.0679 100.19 33.5039 99.758L34.4939 97.562C35.0339 97.958 35.6759 98.276 36.4199 98.516C37.1639 98.756 37.9079 98.876 38.6519 98.876C39.4799 98.876 40.0919 98.756 40.4879 98.516C40.8839 98.264 41.0819 97.934 41.0819 97.526C41.0819 97.226 40.9619 96.98 40.7219 96.788C40.4939 96.584 40.1939 96.422 39.8219 96.302C39.4619 96.182 38.9699 96.05 38.3459 95.906C37.3859 95.678 36.5999 95.45 35.9879 95.222C35.3759 94.994 34.8479 94.628 34.4039 94.124C33.9719 93.62 33.7559 92.948 33.7559 92.108C33.7559 91.376 33.9539 90.716 34.3499 90.128C34.7459 89.528 35.3399 89.054 36.1319 88.706C36.9359 88.358 37.9139 88.184 39.0659 88.184C39.8699 88.184 40.6559 88.28 41.4239 88.472C42.1919 88.664 42.8639 88.94 43.4399 89.3L42.5399 91.514C41.3759 90.854 40.2119 90.524 39.0479 90.524C38.2319 90.524 37.6259 90.656 37.2299 90.92C36.8459 91.184 36.6539 91.532 36.6539 91.964C36.6539 92.396 36.8759 92.72 37.3199 92.936C37.7759 93.14 38.4659 93.344 39.3899 93.548C40.3499 93.776 41.1359 94.004 41.7479 94.232C42.3599 94.46 42.8819 94.82 43.3139 95.312C43.7579 95.804 43.9799 96.47 43.9799 97.31C43.9799 98.03 43.7759 98.69 43.3679 99.29C42.9719 99.878 42.3719 100.346 41.5679 100.694C40.7639 101.042 39.7859 101.216 38.6339 101.216ZM50.3824 101.144C49.3624 101.144 48.4444 100.934 47.6284 100.514C46.8244 100.082 46.1944 99.488 45.7384 98.732C45.2824 97.976 45.0544 97.118 45.0544 96.158C45.0544 95.198 45.2824 94.34 45.7384 93.584C46.1944 92.828 46.8244 92.24 47.6284 91.82C48.4444 91.388 49.3624 91.172 50.3824 91.172C51.4024 91.172 52.3144 91.388 53.1184 91.82C53.9224 92.24 54.5524 92.828 55.0084 93.584C55.4644 94.34 55.6924 95.198 55.6924 96.158C55.6924 97.118 55.4644 97.976 55.0084 98.732C54.5524 99.488 53.9224 100.082 53.1184 100.514C52.3144 100.934 51.4024 101.144 50.3824 101.144ZM50.3824 98.84C51.1024 98.84 51.6904 98.6 52.1464 98.12C52.6144 97.628 52.8484 96.974 52.8484 96.158C52.8484 95.342 52.6144 94.694 52.1464 94.214C51.6904 93.722 51.1024 93.476 50.3824 93.476C49.6624 93.476 49.0684 93.722 48.6004 94.214C48.1324 94.694 47.8984 95.342 47.8984 96.158C47.8984 96.974 48.1324 97.628 48.6004 98.12C49.0684 98.6 49.6624 98.84 50.3824 98.84ZM60.6473 91.532H63.1313V93.692H60.7193V101H57.9113V93.692H56.4173V91.532H57.9113V91.1C57.9113 89.996 58.2353 89.12 58.8833 88.472C59.5433 87.824 60.4673 87.5 61.6553 87.5C62.0753 87.5 62.4713 87.548 62.8433 87.644C63.2273 87.728 63.5453 87.854 63.7973 88.022L63.0593 90.056C62.7353 89.828 62.3573 89.714 61.9253 89.714C61.0733 89.714 60.6473 90.182 60.6473 91.118V91.532ZM70.7763 100.532C70.5003 100.736 70.1583 100.892 69.7503 101C69.3543 101.096 68.9343 101.144 68.4903 101.144C67.3383 101.144 66.4443 100.85 65.8083 100.262C65.1843 99.674 64.8723 98.81 64.8723 97.67V93.692H63.3783V91.532H64.8723V89.174H67.6803V91.532H70.0923V93.692H67.6803V97.634C67.6803 98.042 67.7823 98.36 67.9863 98.588C68.2023 98.804 68.5023 98.912 68.8863 98.912C69.3303 98.912 69.7083 98.792 70.0203 98.552L70.7763 100.532ZM78.5805 101.216C77.2965 101.216 76.1325 100.94 75.0885 100.388C74.0565 99.824 73.2405 99.05 72.6405 98.066C72.0525 97.07 71.7585 95.948 71.7585 94.7C71.7585 93.452 72.0525 92.336 72.6405 91.352C73.2405 90.356 74.0565 89.582 75.0885 89.03C76.1325 88.466 77.3025 88.184 78.5985 88.184C79.6905 88.184 80.6745 88.376 81.5505 88.76C82.4385 89.144 83.1825 89.696 83.7825 90.416L81.9105 92.144C81.0585 91.16 80.0025 90.668 78.7425 90.668C77.9625 90.668 77.2665 90.842 76.6545 91.19C76.0425 91.526 75.5625 92 75.2145 92.612C74.8785 93.224 74.7105 93.92 74.7105 94.7C74.7105 95.48 74.8785 96.176 75.2145 96.788C75.5625 97.4 76.0425 97.88 76.6545 98.228C77.2665 98.564 77.9625 98.732 78.7425 98.732C80.0025 98.732 81.0585 98.234 81.9105 97.238L83.7825 98.966C83.1825 99.698 82.4385 100.256 81.5505 100.64C80.6625 101.024 79.6725 101.216 78.5805 101.216ZM95.0837 87.644V101H92.4017V99.884C91.7057 100.724 90.6977 101.144 89.3777 101.144C88.4657 101.144 87.6377 100.94 86.8937 100.532C86.1617 100.124 85.5857 99.542 85.1657 98.786C84.7457 98.03 84.5357 97.154 84.5357 96.158C84.5357 95.162 84.7457 94.286 85.1657 93.53C85.5857 92.774 86.1617 92.192 86.8937 91.784C87.6377 91.376 88.4657 91.172 89.3777 91.172C90.6137 91.172 91.5797 91.562 92.2757 92.342V87.644H95.0837ZM89.8637 98.84C90.5717 98.84 91.1597 98.6 91.6277 98.12C92.0957 97.628 92.3297 96.974 92.3297 96.158C92.3297 95.342 92.0957 94.694 91.6277 94.214C91.1597 93.722 90.5717 93.476 89.8637 93.476C89.1437 93.476 88.5497 93.722 88.0817 94.214C87.6137 94.694 87.3797 95.342 87.3797 96.158C87.3797 96.974 87.6137 97.628 88.0817 98.12C88.5497 98.6 89.1437 98.84 89.8637 98.84ZM102.471 96.05L100.779 97.814V101H97.8806V88.4H100.779V94.286L106.359 88.4H109.599L104.379 94.016L109.905 101H106.503L102.471 96.05ZM120.089 96.194C120.089 96.23 120.071 96.482 120.035 96.95H112.709C112.841 97.55 113.153 98.024 113.645 98.372C114.137 98.72 114.749 98.894 115.481 98.894C115.985 98.894 116.429 98.822 116.813 98.678C117.209 98.522 117.575 98.282 117.911 97.958L119.405 99.578C118.493 100.622 117.161 101.144 115.409 101.144C114.317 101.144 113.351 100.934 112.511 100.514C111.671 100.082 111.023 99.488 110.567 98.732C110.111 97.976 109.883 97.118 109.883 96.158C109.883 95.21 110.105 94.358 110.549 93.602C111.005 92.834 111.623 92.24 112.403 91.82C113.195 91.388 114.077 91.172 115.049 91.172C115.997 91.172 116.855 91.376 117.623 91.784C118.391 92.192 118.991 92.78 119.423 93.548C119.867 94.304 120.089 95.186 120.089 96.194ZM115.067 93.296C114.431 93.296 113.897 93.476 113.465 93.836C113.033 94.196 112.769 94.688 112.673 95.312H117.443C117.347 94.7 117.083 94.214 116.651 93.854C116.219 93.482 115.691 93.296 115.067 93.296ZM131.394 91.316L127.02 101.594C126.576 102.71 126.024 103.496 125.364 103.952C124.716 104.408 123.93 104.636 123.006 104.636C122.502 104.636 122.004 104.558 121.512 104.402C121.02 104.246 120.618 104.03 120.306 103.754L121.332 101.756C121.548 101.948 121.794 102.098 122.07 102.206C122.358 102.314 122.64 102.368 122.916 102.368C123.3 102.368 123.612 102.272 123.852 102.08C124.092 101.9 124.308 101.594 124.5 101.162L124.536 101.072L120.342 91.316H123.24L125.958 97.886L128.694 91.316H131.394Z" fill="white"/>
</svg>
