<?xml version="1.0" encoding="utf-8"?><svg width="20" height="21" fill="none" xmlns="http://www.w3.org/2000/svg" viewBox="0 0 20 21"><path d="M8.127 2.018c-.456 0-.826-.336-.826-.75 0-.415.37-.75.826-.75h3.894c.456 0 .826.335.826.75 0 .414-.37.75-.826.75H8.127zM4.306 2.47a.702.702 0 010 1.06l-2.753 2.5a.886.886 0 01-1.169 0 .702.702 0 010-1.06l2.754-2.5a.886.886 0 011.168 0zM10.33 4.75c-4.41 0-7.985 3.246-7.985 7.25s3.575 7.25 7.984 7.25c4.41 0 7.985-3.246 7.985-7.25 0-.414.37-.75.826-.75.456 0 .826.336.826.75 0 4.832-4.315 8.75-9.637 8.75C5.008 20.75.694 16.832.694 12c0-4.833 4.315-8.75 9.636-8.75.457 0 .826.336.826.75s-.37.75-.825.75z" fill="#464A58"/><path d="M16.043 7.364a.7.7 0 00-.068-.99.889.889 0 00-1.09-.062l-3.492 2.465-2.281 1.48c-.487.316-.777.826-.777 1.37 0 .93.83 1.683 1.855 1.683.599 0 1.16-.262 1.509-.705l1.629-2.071 2.715-3.17z" fill="#464A58"/></svg>