<?xml version="1.0" encoding="utf-8"?><svg width="12" height="12" fill="none" xmlns="http://www.w3.org/2000/svg" viewBox="0 0 12 12"><path d="M8.813 6.733c0-.246-.252-.446-.563-.446h-4.5c-.31 0-.563.2-.563.446 0 .247.252.446.563.446h4.5c.31 0 .563-.2.563-.446zM8.813 9.113c0-.247-.252-.447-.563-.447h-4.5c-.31 0-.563.2-.563.447 0 .246.252.446.563.446h4.5c.31 0 .563-.2.563-.446z" fill="#464A58"/><path fill-rule="evenodd" clip-rule="evenodd" d="M2.25.339C1.11.339.187 1.07.187 1.975v8.327c0 .904.924 1.636 2.063 1.636h7.5c1.14 0 2.063-.732 2.063-1.636V3.74a.91.91 0 00-.266-.628L9.3.752C9.05.492 8.663.34 8.252.34H2.25zm-.938 1.636c0-.411.42-.744.938-.744h5.438v2.616c0 .246.251.446.562.446h2.438v6.01c0 .41-.42.743-.938.743h-7.5c-.518 0-.938-.333-.938-.744V1.975z" fill="#464A58"/></svg>