<?xml version="1.0" encoding="utf-8"?><svg width="12" height="12" fill="none" xmlns="http://www.w3.org/2000/svg" viewBox="0 0 12 12"><path fill-rule="evenodd" clip-rule="evenodd" d="M5.053.933c-.58 0-1.064.352-1.114.81a17.529 17.529 0 00-.08 2.882l-.19.01L2.55 4.7c-.714.042-1.113.673-.727 1.151.822 1.02 1.881 1.908 3.121 2.614l.448.255c.363.207.851.207 1.214 0l.448-.255c1.24-.706 2.3-1.593 3.121-2.614.386-.478-.013-1.11-.727-1.15l-1.117-.065a41.405 41.405 0 00-.19-.01c.052-.962.025-1.924-.08-2.883-.051-.458-.535-.81-1.115-.81H5.053zm-.042 4.083c-.085-1.063-.07-2.13.048-3.19H6.94a16.82 16.82 0 01.048 3.19c-.01.12.041.237.142.326.1.089.241.142.392.148.242.01.485.022.727.036l.811.046c-.72.841-1.62 1.575-2.662 2.169L6 7.968l-.398-.227a10.019 10.019 0 01-2.663-2.169l.811-.046c.243-.014.485-.026.727-.036a.63.63 0 00.392-.148c.1-.09.152-.206.142-.326z" fill="#464A58"/><path d="M1.313 9.112c0-.246-.252-.446-.563-.446-.31 0-.563.2-.563.446v1.19c0 .575.588 1.04 1.313 1.04h9c.725 0 1.313-.466 1.313-1.04v-1.19c0-.246-.252-.446-.563-.446-.31 0-.563.2-.563.446v1.19c0 .082-.083.148-.187.148h-9c-.104 0-.188-.066-.188-.148v-1.19z" fill="#464A58"/></svg>