<?xml version="1.0" encoding="utf-8"?><svg width="17" height="22" fill="none" xmlns="http://www.w3.org/2000/svg" viewBox="0 0 17 22"><path d="M13.16 2.485c-.142.223-.32.525-.513.9a.26.26 0 01-.457.013C11.017 1.41 9.613 0 8.103 0 5.698 0 3.56 3.579 2.2 7.371c-.184.514-.92.512-1.09-.008a2.071 2.071 0 01-.007-.024c-.072-.227-.4-.216-.462.014-.562 2.088-1.528 7.22 1.157 11.155A7.435 7.435 0 008.103 22a7.418 7.418 0 005.384-2.308c.612-.737 2.804-2.808 2.804-7.309 0-5.812-2.585-7.384-2.797-9.819-.015-.172-.24-.225-.333-.08z" fill="url(#ipaint0_radial_149_4724)"/><path d="M8.145 21.489a7.186 7.186 0 100-14.373 7.186 7.186 0 000 14.373z" fill="url(#ipaint1_linear_149_4724)"/><path d="M11.839 8.137a7.186 7.186 0 01-9.859 9.859 7.187 7.187 0 109.859-9.859z" fill="url(#ipaint2_linear_149_4724)"/><path d="M8.145 20.926a6.624 6.624 0 100-13.247 6.624 6.624 0 000 13.247z" fill="url(#ipaint3_linear_149_4724)"/><path d="M3.918 13.289v-1.582c0-1.103.724-1.504 1.67-1.504.937 0 1.672.401 1.672 1.504v1.582c0 1.103-.735 1.504-1.671 1.504-.947 0-1.671-.401-1.671-1.504zm2.228-1.582c0-.368-.212-.535-.557-.535-.345 0-.546.167-.546.535v1.582c0 .367.2.534.546.534.345 0 .557-.167.557-.534v-1.582zm4.567-1.37a.483.483 0 01-.045.212l-3.92 8.031c-.079.167-.29.279-.502.279a.616.616 0 01-.624-.59.5.5 0 01.056-.212l3.91-8.032c.089-.19.267-.278.468-.278.312 0 .657.233.657.59zM9.03 16.876v-1.582c0-1.103.724-1.504 1.67-1.504.936 0 1.672.401 1.672 1.504v1.582c0 1.102-.736 1.503-1.671 1.503-.947 0-1.671-.4-1.671-1.503zm2.228-1.582c0-.368-.212-.535-.557-.535-.345 0-.546.167-.546.535v1.582c0 .367.2.534.546.534.345 0 .557-.167.557-.534v-1.582z" fill="#fff"/><path d="M13.677 15.331a5.526 5.526 0 11-11.053 0C2.624 12.28 5.098 4.52 8.15 4.52c3.053 0 5.527 7.76 5.527 10.811z" fill="url(#ipaint4_linear_149_4724)"/><path d="M12.164 16.844a4.014 4.014 0 11-8.028 0c0-2.217 1.797-7.853 4.014-7.853 2.217 0 4.014 5.636 4.014 7.853z" fill="url(#ipaint5_linear_149_4724)"/><defs><linearGradient id="ipaint1_linear_149_4724" x1="5.409" y1="11.566" x2="11.203" y2="17.36" gradientUnits="userSpaceOnUse"><stop stop-color="#FF7044"/><stop offset="1" stop-color="#F82814"/></linearGradient><linearGradient id="ipaint2_linear_149_4724" x1="9.376" y1="15.146" x2="22.058" y2="11.426" gradientUnits="userSpaceOnUse"><stop stop-color="#F82814" stop-opacity="0"/><stop offset="1" stop-color="#C0272D"/></linearGradient><linearGradient id="ipaint3_linear_149_4724" x1="9.507" y1="16.554" x2=".883" y2="2.293" gradientUnits="userSpaceOnUse"><stop stop-color="#FF7044" stop-opacity="0"/><stop offset="1" stop-color="#FFA325"/></linearGradient><linearGradient id="ipaint4_linear_149_4724" x1="9.333" y1="15.479" x2="2.328" y2="5.534" gradientUnits="userSpaceOnUse"><stop stop-color="#FFD945" stop-opacity="0"/><stop offset="1" stop-color="#FBED21"/></linearGradient><linearGradient id="ipaint5_linear_149_4724" x1="5.541" y1="13.988" x2="14.106" y2="17.394" gradientUnits="userSpaceOnUse"><stop stop-color="#F35227" stop-opacity="0"/><stop offset="1" stop-color="#F35227"/></linearGradient><radialGradient id="ipaint0_radial_149_4724" cx="0" cy="0" r="1" gradientUnits="userSpaceOnUse" gradientTransform="translate(4.61 8.381) scale(12.341)"><stop stop-color="#FFD945"/><stop offset=".417" stop-color="#FFD744"/><stop offset=".628" stop-color="#FFCF3F"/><stop offset=".793" stop-color="#FFC237"/><stop offset=".933" stop-color="#FFAF2C"/><stop offset="1" stop-color="#FFA325"/></radialGradient></defs></svg>