<?xml version="1.0" encoding="UTF-8" standalone="no"?><svg width="26" height="32.002" viewBox="0 0 6.879 8.467" xmlns="http://www.w3.org/2000/svg"><path d="M6.754.712L4.347.007a.164.164 0 00-.114.007L.106 1.778a.177.177 0 00-.105.162v4.587c0 .096.076.175.17.176A.174.174 0 000 6.881c0 .075.048.142.118.166l4.127 1.411a.168.168 0 00.102.002l2.407-.705a.176.176 0 00.125-.17V.882a.176.176 0 00-.125-.169zM.25 6.684l1.031-.53a.177.177 0 00.095-.157V2.255l3.096-.794v5.918L.199 6.705a.2.2 0 00-.025-.002.174.174 0 00.076-.019z" fill="#464a58"/></svg>