<?xml version="1.0" encoding="UTF-8" standalone="no"?><svg width="426.707" height="511.987" xmlns="http://www.w3.org/2000/svg" viewBox="0 0 426.707 511.987"><path d="M418.962 43.08L269.63.414a10.668 10.668 0 00-7.04.405l-256 106.667A10.666 10.666 0 00.04 117.32v277.333c0 5.85 4.711 10.608 10.56 10.667-5.89.036-10.637 4.842-10.6 10.732a10.667 10.667 0 007.336 10.068l256 85.333a10.99 10.99 0 003.371.533c.99-.006 1.973-.15 2.923-.427l149.333-42.667a10.667 10.667 0 007.744-10.24V53.32a10.669 10.669 0 00-7.745-10.24zM15.485 404.19l64-32a10.666 10.666 0 005.888-9.536V136.328l192-48v357.888L12.327 405.448a9.266 9.266 0 00-1.515-.128 10.802 10.802 0 004.673-1.13z" fill="#ff5722"/></svg>