<?xml version="1.0" encoding="utf-8"?><svg width="20" height="20" fill="none" xmlns="http://www.w3.org/2000/svg" viewBox="0 0 20 20"><g clip-path="url(#pclip0_142_18975)"><path d="M19.483 7.293l-6.179-.898L10.541.796A.597.597 0 0010 .46v16.105l5.526 2.905a.604.604 0 00.876-.637l-1.056-6.153 4.47-4.358a.603.603 0 00-.333-1.03z" fill="#FFB820"/><path d="M14.05 12.258l.955 5.573-5.004-1.266-5.527 2.905a.604.604 0 01-.876-.637l1.056-6.153-4.47-4.358a.603.603 0 01.333-1.03l6.179-.897L9.459.796A.597.597 0 0110 .46l2.503 7.038 5.596.813-4.05 3.947z" fill="#FFD06A"/></g><defs><clipPath id="pclip0_142_18975"><path fill="#fff" d="M0 0h20v20H0z"/></clipPath></defs></svg>