<?xml version="1.0" encoding="utf-8"?><svg width="18" height="20" fill="none" xmlns="http://www.w3.org/2000/svg" viewBox="0 0 18 20"><path fill-rule="evenodd" clip-rule="evenodd" d="M3.25 3.5A3.25 3.25 0 019 1.423a3.25 3.25 0 015.24 3.827H15A2.75 2.75 0 0117.75 8v2a1.75 1.75 0 01-1.281 1.687c.144 1.826.06 3.665-.25 5.473a2.459 2.459 0 01-2.15 2.028l-.915.102a37.402 37.402 0 01-8.309 0l-.914-.102a2.459 2.459 0 01-2.15-2.028 22.111 22.111 0 01-.25-5.473A1.75 1.75 0 01.25 10V8A2.75 2.75 0 013 5.25h.76a3.235 3.235 0 01-.51-1.75zm5 0a1.75 1.75 0 10-3.5 0 1.75 1.75 0 003.5 0zm3.25 1.75a1.75 1.75 0 100-3.5 1.75 1.75 0 000 3.5zM1.75 8c0-.69.56-1.25 1.25-1.25h5.25v3.5H2a.25.25 0 01-.25-.25V8zm8 3.75h5.219c.14 1.72.064 3.453-.228 5.156a.959.959 0 01-.839.791l-.914.103c-1.076.12-2.157.191-3.238.214V11.75zm0-1.5H16a.25.25 0 00.25-.25V8c0-.69-.56-1.25-1.25-1.25H9.75v3.5zm-1.5 1.5v6.264a35.905 35.905 0 01-3.238-.214l-.914-.103a.959.959 0 01-.839-.79 20.612 20.612 0 01-.228-5.157H8.25z" fill="#464A58"/></svg>