<?xml version="1.0" encoding="utf-8"?><svg width="18" height="20" fill="none" xmlns="http://www.w3.org/2000/svg" viewBox="0 0 18 20"><path fill-rule="evenodd" clip-rule="evenodd" d="M9 4.25a3.25 3.25 0 100 6.5 3.25 3.25 0 000-6.5zM7.25 7.5a1.75 1.75 0 113.5 0 1.75 1.75 0 01-3.5 0z" fill="#464A58"/><path fill-rule="evenodd" clip-rule="evenodd" d="M9 .25a7.25 7.25 0 00-6.063 11.226L.35 15.956a.75.75 0 00.795 1.11l2.614-.514.861 2.52a.75.75 0 001.36.133l2.58-4.468a7.31 7.31 0 00.88 0l2.58 4.468a.75.75 0 001.36-.134l.858-2.526 2.616.52a.75.75 0 00.796-1.11l-2.586-4.479A7.25 7.25 0 009 .25zM3.25 7.5a5.75 5.75 0 1111.5 0 5.75 5.75 0 01-11.5 0zm3.734 6.966a7.243 7.243 0 01-3.027-1.757l-1.482 2.567 1.637-.322a.75.75 0 01.854.493l.54 1.579 1.478-2.56zm5.508 2.556l-1.476-2.556a7.244 7.244 0 003.027-1.757l1.48 2.563-1.638-.326a.75.75 0 00-.856.495l-.537 1.58z" fill="#464A58"/></svg>