<?xml version="1.0" encoding="UTF-8" standalone="no"?><svg width="84" height="32.002" viewBox="0 0 22.225 8.467" xmlns="http://www.w3.org/2000/svg"><defs><clipPath id="va"><path fill="#fff" transform="translate(0 2)" d="M0 0h29v27H0z"/></clipPath></defs><g fill="#464a58"><path d="M13.324 3.772h-1.003V2.718h-1.067v1.054h-1.01v1.003h1.01v1.08h1.067v-1.08h1.003zM22.1.712L19.693.007a.164.164 0 00-.114.007l-4.127 1.764a.177.177 0 00-.106.162v4.587c0 .096.076.175.17.176a.174.174 0 00-.17.178c0 .075.048.142.118.166l4.127 1.411a.168.168 0 00.102.002l2.407-.705a.176.176 0 00.125-.17V.882A.176.176 0 0022.1.713zm-6.505 5.972l1.032-.53a.177.177 0 00.095-.157V2.255l3.096-.794v5.918l-4.273-.674a.2.2 0 00-.025-.002.174.174 0 00.075-.019z"/><g clip-path="url(#va)" transform="matrix(.26458 0 0 .26458 0 0)"><path d="M11.7 26.666L0 25.089V16.35h11.7zM29 14.651H13.568l.005-10.57L29 2zM29 29l-15.438-2.082.019-10.566H29zM11.7 14.65H0V5.912l11.7-1.577z"/></g></g></svg>