<?xml version="1.0" encoding="utf-8"?><svg width="28" height="28" fill="none" xmlns="http://www.w3.org/2000/svg" viewBox="0 0 28 28"><path d="M14 27.971c7.716 0 13.971-6.255 13.971-13.97C27.971 6.283 21.716.028 14 .028S.029 6.284.029 14 6.284 27.971 14 27.971z" fill="#FC3F1D"/><path d="M19.055 22.77H15.99V7.602h-1.367c-2.504 0-3.816 1.253-3.816 3.122 0 2.12.905 3.103 2.777 4.355l1.542 1.04-4.433 6.65H7.394l3.99-5.937c-2.294-1.638-3.586-3.238-3.586-5.937 0-3.373 2.352-5.667 6.803-5.667h4.434v17.538h.02v.006z" fill="#fff"/></svg>