<?xml version="1.0" encoding="UTF-8" standalone="no"?>
<svg
   id="Capa_1"
   enable-background="new 0 0 512 512"
   height="512"
   viewBox="0 0 512 512"
   width="512"
   version="1.1"
   sodipodi:docname="add-to-cart.svg"
   inkscape:version="1.1.1 (eb90963e84, 2021-10-02)"
   xmlns:inkscape="http://www.inkscape.org/namespaces/inkscape"
   xmlns:sodipodi="http://sodipodi.sourceforge.net/DTD/sodipodi-0.dtd"
   xmlns="http://www.w3.org/2000/svg"
   xmlns:svg="http://www.w3.org/2000/svg">
  <defs
     id="defs9" />
  <sodipodi:namedview
     id="namedview7"
     pagecolor="#ffffff"
     bordercolor="#666666"
     borderopacity="1.0"
     inkscape:pageshadow="2"
     inkscape:pageopacity="0.0"
     inkscape:pagecheckerboard="0"
     showgrid="false"
     inkscape:zoom="1.6308594"
     inkscape:cx="256"
     inkscape:cy="256.30659"
     inkscape:window-width="1920"
     inkscape:window-height="1013"
     inkscape:window-x="0"
     inkscape:window-y="30"
     inkscape:window-maximized="1"
     inkscape:current-layer="Capa_1" />
  <g
     id="g4">
    <path
       d="m472 452c0 11.046-8.954 20-20 20h-20v20c0 11.046-8.954 20-20 20s-20-8.954-20-20v-20h-20c-11.046 0-20-8.954-20-20s8.954-20 20-20h20v-20c0-11.046 8.954-20 20-20s20 8.954 20 20v20h20c11.046 0 20 8.954 20 20zm0-312v192c0 11.046-8.954 20-20 20s-20-8.954-20-20v-172h-40v60c0 11.046-8.954 20-20 20s-20-8.954-20-20v-60h-192v60c0 11.046-8.954 20-20 20s-20-8.954-20-20v-60h-40v312h212c11.046 0 20 8.954 20 20s-8.954 20-20 20h-232c-11.046 0-20-8.954-20-20v-352c0-11.046 8.954-20 20-20h60.946c7.945-67.477 65.477-120 135.054-120s127.109 52.523 135.054 120h60.946c11.046 0 20 8.954 20 20zm-121.341-20c-7.64-45.345-47.176-80-94.659-80s-87.019 34.655-94.659 80z"
       id="path2" />
  </g>
</svg>
