<?xml version="1.0" encoding="UTF-8" standalone="no"?>
<!-- Generator: Adobe Illustrator 19.0.0, SVG Export Plug-In . SVG Version: 6.00 Build 0)  -->

<svg
   version="1.1"
   id="Layer_1"
   x="0px"
   y="0px"
   viewBox="0 0 356 437.18484"
   xml:space="preserve"
   sodipodi:docname="basket.svg"
   inkscape:version="1.1.1 (eb90963e84, 2021-10-02)"
   width="356"
   height="437.18484"
   xmlns:inkscape="http://www.inkscape.org/namespaces/inkscape"
   xmlns:sodipodi="http://sodipodi.sourceforge.net/DTD/sodipodi-0.dtd"
   xmlns="http://www.w3.org/2000/svg"
   xmlns:svg="http://www.w3.org/2000/svg"><defs
   id="defs37" /><sodipodi:namedview
   id="namedview35"
   pagecolor="#ffffff"
   bordercolor="#666666"
   borderopacity="1.0"
   inkscape:pageshadow="2"
   inkscape:pageopacity="0.0"
   inkscape:pagecheckerboard="0"
   showgrid="false"
   inkscape:zoom="1.7216495"
   inkscape:cx="91.772455"
   inkscape:cy="253.24551"
   inkscape:window-width="1920"
   inkscape:window-height="1013"
   inkscape:window-x="0"
   inkscape:window-y="30"
   inkscape:window-maximized="1"
   inkscape:current-layer="Layer_1"
   fit-margin-top="0"
   fit-margin-left="0"
   fit-margin-right="0"
   fit-margin-bottom="0" />
<path
   d="M 266.85,104.60887 V 80.09046 C 266.85,35.928481 226.992,0 178,0 129.008,0 89.15,35.928481 89.15,80.09046 v 24.51841 H 0 V 437.18484 H 356 V 104.60887 Z M 119.15,80.09046 c 0,-29.250821 26.4,-53.048099 58.85,-53.048099 32.45,0 58.85,23.797278 58.85,53.048099 v 24.51841 H 119.15 Z M 326,410.14248 H 30 V 131.65123 h 59.15 v 31.54942 h 30 v -31.54942 h 117.7 v 31.54942 h 30 V 131.65123 H 326 Z"
   id="path2"
   style="stroke-width:0.949427" />
<g
   id="g4"
   transform="translate(-64.5)">
</g>
<g
   id="g6"
   transform="translate(-64.5)">
</g>
<g
   id="g8"
   transform="translate(-64.5)">
</g>
<g
   id="g10"
   transform="translate(-64.5)">
</g>
<g
   id="g12"
   transform="translate(-64.5)">
</g>
<g
   id="g14"
   transform="translate(-64.5)">
</g>
<g
   id="g16"
   transform="translate(-64.5)">
</g>
<g
   id="g18"
   transform="translate(-64.5)">
</g>
<g
   id="g20"
   transform="translate(-64.5)">
</g>
<g
   id="g22"
   transform="translate(-64.5)">
</g>
<g
   id="g24"
   transform="translate(-64.5)">
</g>
<g
   id="g26"
   transform="translate(-64.5)">
</g>
<g
   id="g28"
   transform="translate(-64.5)">
</g>
<g
   id="g30"
   transform="translate(-64.5)">
</g>
<g
   id="g32"
   transform="translate(-64.5)">
</g>
</svg>
