<svg width="20" height="21" viewBox="0 0 20 21" fill="none" xmlns="http://www.w3.org/2000/svg">
<path d="M8.12694 2.01758C7.67077 2.01758 7.30097 1.68179 7.30097 1.26758C7.30097 0.853364 7.67077 0.517578 8.12694 0.517578H12.0206C12.4768 0.517578 12.8466 0.853364 12.8466 1.26758C12.8466 1.68179 12.4768 2.01758 12.0206 2.01758H8.12694Z" fill="#464A58"/>
<path d="M4.30583 2.46948C4.62839 2.76238 4.62839 3.23725 4.30583 3.53014L1.5526 6.03014C1.23003 6.32304 0.70706 6.32304 0.384499 6.03014C0.0619379 5.73725 0.0619379 5.26238 0.384499 4.96948L3.13773 2.46948C3.46029 2.17659 3.98327 2.17659 4.30583 2.46948Z" fill="#464A58"/>
<path d="M10.3295 4.74981C5.91989 4.74981 2.34516 7.99575 2.34516 11.9998C2.34516 16.0039 5.91989 19.2498 10.3295 19.2498C14.7392 19.2498 18.3139 16.0039 18.3139 11.9998C18.3139 11.5856 18.6837 11.2498 19.1399 11.2498C19.596 11.2498 19.9658 11.5856 19.9658 11.9998C19.9658 16.8323 15.6515 20.7498 10.3295 20.7498C5.00755 20.7498 0.693224 16.8323 0.693224 11.9998C0.693224 7.16732 5.00755 3.24981 10.3295 3.24981C10.7857 3.24981 11.1555 3.5856 11.1555 3.99981C11.1555 4.41403 10.7857 4.74981 10.3295 4.74981Z" fill="#464A58"/>
<path d="M16.0433 7.36407C16.299 7.0655 16.2699 6.64074 15.9753 6.37329C15.6808 6.10583 15.213 6.07938 14.8842 6.3116L11.3932 8.77708L9.11195 10.2567C8.62466 10.5727 8.33546 11.083 8.33546 11.6268C8.33546 12.5566 9.16564 13.3105 10.1897 13.3105C10.7886 13.3105 11.3505 13.0479 11.6986 12.6054L13.328 10.534L16.0433 7.36407Z" fill="#464A58"/>
</svg>
