<svg width="12" height="12" viewBox="0 0 12 12" fill="none" xmlns="http://www.w3.org/2000/svg">
<path d="M8.8125 6.73325C8.8125 6.48686 8.56066 6.28713 8.25 6.28713H3.75C3.43934 6.28713 3.1875 6.48686 3.1875 6.73325C3.1875 6.97963 3.43934 7.17937 3.75 7.17937H8.25C8.56066 7.17937 8.8125 6.97963 8.8125 6.73325Z" fill="#464A58"/>
<path d="M8.8125 9.11255C8.8125 8.86617 8.56066 8.66643 8.25 8.66643H3.75C3.43934 8.66643 3.1875 8.86617 3.1875 9.11255C3.1875 9.35894 3.43934 9.55867 3.75 9.55867H8.25C8.56066 9.55867 8.8125 9.35894 8.8125 9.11255Z" fill="#464A58"/>
<path fill-rule="evenodd" clip-rule="evenodd" d="M2.25 0.338867C1.11091 0.338867 0.1875 1.07123 0.1875 1.97464V10.3022C0.1875 11.2056 1.11091 11.938 2.25 11.938H9.75C10.8891 11.938 11.8125 11.2056 11.8125 10.3022V3.73988C11.8125 3.51339 11.7194 3.29307 11.5472 3.11236L9.29886 0.752296C9.05081 0.491915 8.66314 0.338867 8.25166 0.338867H2.25ZM1.3125 1.97464C1.3125 1.564 1.73223 1.23111 2.25 1.23111H7.6875V3.84658C7.6875 4.09297 7.93934 4.2927 8.25 4.2927H10.6875V10.3022C10.6875 10.7128 10.2678 11.0457 9.75 11.0457H2.25C1.73223 11.0457 1.3125 10.7128 1.3125 10.3022V1.97464Z" fill="#464A58"/>
</svg>
