<svg width="12" height="12" viewBox="0 0 12 12" fill="none" xmlns="http://www.w3.org/2000/svg">
<path fill-rule="evenodd" clip-rule="evenodd" d="M5.05348 0.933105C4.47327 0.933105 3.98928 1.28478 3.93861 1.74319C3.83268 2.70162 3.80587 3.66433 3.85827 4.62515C3.79502 4.62851 3.73178 4.63202 3.66855 4.63567L2.55142 4.70026C1.83739 4.74154 1.43823 5.37298 1.82372 5.85145C2.64585 6.87188 3.70519 7.75899 4.94527 8.46549L5.39283 8.72048C5.75569 8.92721 6.24443 8.92721 6.60729 8.72048L7.05485 8.46549C8.29493 7.75899 9.35427 6.87188 10.1764 5.85145C10.5619 5.37298 10.1627 4.74154 9.4487 4.70026L8.33157 4.63567C8.26834 4.63202 8.2051 4.62851 8.14185 4.62515C8.19424 3.66433 8.16744 2.70162 8.0615 1.74319C8.01084 1.28478 7.52685 0.933105 6.94664 0.933105H5.05348ZM5.01118 5.01642C4.92589 3.95334 4.94182 2.88662 5.05885 1.82534H6.94127C7.0583 2.88662 7.07422 3.95334 6.98894 5.01642C6.97938 5.13561 7.03047 5.25286 7.13077 5.34193C7.23108 5.431 7.37223 5.48445 7.52263 5.49033C7.76513 5.49981 8.00753 5.51154 8.24978 5.52555L9.0611 5.57245C8.34144 6.41312 7.44033 7.14729 6.3985 7.74084L6.00006 7.96784L5.60162 7.74084C4.55979 7.14729 3.65868 6.41312 2.93902 5.57245L3.75034 5.52555C3.99258 5.51154 4.23498 5.49981 4.47749 5.49033C4.62789 5.48445 4.76903 5.431 4.86934 5.34193C4.96965 5.25286 5.02074 5.13561 5.01118 5.01642Z" fill="#464A58"/>
<path d="M1.3125 9.11196C1.3125 8.86558 1.06066 8.66584 0.75 8.66584C0.43934 8.66584 0.1875 8.86558 0.1875 9.11196V10.3016C0.1875 10.8765 0.775127 11.3426 1.5 11.3426H10.5C11.2249 11.3426 11.8125 10.8765 11.8125 10.3016V9.11196C11.8125 8.86558 11.5607 8.66584 11.25 8.66584C10.9393 8.66584 10.6875 8.86558 10.6875 9.11196V10.3016C10.6875 10.3837 10.6036 10.4503 10.5 10.4503H1.5C1.39645 10.4503 1.3125 10.3837 1.3125 10.3016V9.11196Z" fill="#464A58"/>
</svg>
