<svg width="17" height="22" viewBox="0 0 17 22" fill="none" xmlns="http://www.w3.org/2000/svg">
<path d="M13.1606 2.48458C13.0182 2.70824 12.8398 3.00951 12.6474 3.3842C12.5534 3.56732 12.295 3.57522 12.1904 3.39792C11.0173 1.4102 9.61279 0 8.10316 0C5.69796 0 3.55943 3.57875 2.19914 7.37121C2.01468 7.88545 1.27889 7.88256 1.10966 7.3631C1.10708 7.3552 1.10453 7.34727 1.10203 7.33929C1.02982 7.11182 0.702319 7.12287 0.640244 7.35326C0.0779931 9.44098 -0.887548 14.5722 1.79697 18.5075C3.113 20.6047 5.44453 22 8.10316 22C10.2218 22 12.132 21.1132 13.4873 19.6923C14.0994 18.9547 16.2906 16.8839 16.2906 12.383C16.2906 6.57149 13.7061 4.99926 13.4937 2.56438C13.4786 2.39213 13.2534 2.33869 13.1606 2.48458Z" fill="url(#paint0_radial_149_4724)"/>
<path d="M8.14528 21.4888C12.1143 21.4888 15.3318 18.2713 15.3318 14.3023C15.3318 10.3332 12.1143 7.11572 8.14528 7.11572C4.17626 7.11572 0.95874 10.3332 0.95874 14.3023C0.95874 18.2713 4.17626 21.4888 8.14528 21.4888Z" fill="url(#paint1_linear_149_4724)"/>
<path d="M11.8386 8.13672C12.4866 9.2161 12.8594 10.4794 12.8594 11.83C12.8594 15.799 9.64191 19.0165 5.6729 19.0165C4.32236 19.0165 3.05899 18.6437 1.97961 17.9957C3.23581 20.0884 5.52688 21.489 8.14535 21.489C12.1144 21.489 15.3319 18.2715 15.3319 14.3025C15.3319 11.684 13.9313 9.39296 11.8386 8.13672Z" fill="url(#paint2_linear_149_4724)"/>
<path d="M8.14533 20.9259C11.8034 20.9259 14.7689 17.9604 14.7689 14.3023C14.7689 10.6442 11.8034 7.67871 8.14533 7.67871C4.48721 7.67871 1.52173 10.6442 1.52173 14.3023C1.52173 17.9604 4.48721 20.9259 8.14533 20.9259Z" fill="url(#paint3_linear_149_4724)"/>
<path d="M3.91797 13.2888V11.707C3.91797 10.6042 4.64198 10.2033 5.58885 10.2033C6.52454 10.2033 7.25973 10.6043 7.25973 11.707V13.2888C7.25973 14.3916 6.52454 14.7926 5.58885 14.7926C4.64198 14.7926 3.91797 14.3916 3.91797 13.2888ZM6.14579 11.707C6.14579 11.3395 5.93416 11.1724 5.58885 11.1724C5.24353 11.1724 5.04299 11.3395 5.04299 11.707V13.2888C5.04299 13.6564 5.24353 13.8235 5.58885 13.8235C5.93416 13.8235 6.14579 13.6564 6.14579 13.2888V11.707ZM10.7129 10.3369C10.7129 10.4038 10.7017 10.4817 10.6683 10.5486L6.7473 18.58C6.66935 18.7471 6.45767 18.8585 6.24604 18.8585C5.86734 18.8585 5.62228 18.5466 5.62228 18.2681C5.62228 18.2013 5.64454 18.1233 5.67797 18.0565L9.58789 10.0251C9.67697 9.8357 9.85521 9.74658 10.0558 9.74658C10.3676 9.7465 10.7129 9.98043 10.7129 10.3369ZM9.03086 16.8757V15.2939C9.03086 14.1911 9.75491 13.7901 10.7017 13.7901C11.6375 13.7901 12.3727 14.1911 12.3727 15.2939V16.8757C12.3727 17.9785 11.6374 18.3795 10.7017 18.3795C9.75496 18.3795 9.03086 17.9785 9.03086 16.8757ZM11.2588 15.2939C11.2588 14.9263 11.0471 14.7592 10.7018 14.7592C10.3565 14.7592 10.156 14.9263 10.156 15.2939V16.8757C10.156 17.2433 10.3565 17.4103 10.7018 17.4103C11.0471 17.4103 11.2588 17.2433 11.2588 16.8757V15.2939Z" fill="white"/>
<path d="M13.6767 15.3312C13.6767 18.3833 11.2025 20.8575 8.1505 20.8575C5.09845 20.8575 2.62427 18.3833 2.62427 15.3312C2.62427 12.2792 5.09845 4.51953 8.1505 4.51953C11.2025 4.51953 13.6767 12.2792 13.6767 15.3312Z" fill="url(#paint4_linear_149_4724)"/>
<path d="M12.1644 16.8439C12.1644 19.0608 10.3673 20.8579 8.15036 20.8579C5.93349 20.8579 4.13635 19.0608 4.13635 16.8439C4.13635 14.627 5.93349 8.99072 8.15036 8.99072C10.3673 8.99072 12.1644 14.627 12.1644 16.8439Z" fill="url(#paint5_linear_149_4724)"/>
<defs>
<radialGradient id="paint0_radial_149_4724" cx="0" cy="0" r="1" gradientUnits="userSpaceOnUse" gradientTransform="translate(4.60917 8.38144) scale(12.341)">
<stop stop-color="#FFD945"/>
<stop offset="0.4169" stop-color="#FFD744"/>
<stop offset="0.6278" stop-color="#FFCF3F"/>
<stop offset="0.7926" stop-color="#FFC237"/>
<stop offset="0.9326" stop-color="#FFAF2C"/>
<stop offset="1" stop-color="#FFA325"/>
</radialGradient>
<linearGradient id="paint1_linear_149_4724" x1="5.40921" y1="11.5662" x2="11.2031" y2="17.3602" gradientUnits="userSpaceOnUse">
<stop stop-color="#FF7044"/>
<stop offset="1" stop-color="#F82814"/>
</linearGradient>
<linearGradient id="paint2_linear_149_4724" x1="9.37614" y1="15.1459" x2="22.0582" y2="11.4258" gradientUnits="userSpaceOnUse">
<stop stop-color="#F82814" stop-opacity="0"/>
<stop offset="1" stop-color="#C0272D"/>
</linearGradient>
<linearGradient id="paint3_linear_149_4724" x1="9.50691" y1="16.5538" x2="0.883081" y2="2.2935" gradientUnits="userSpaceOnUse">
<stop stop-color="#FF7044" stop-opacity="0"/>
<stop offset="1" stop-color="#FFA325"/>
</linearGradient>
<linearGradient id="paint4_linear_149_4724" x1="9.33336" y1="15.4795" x2="2.328" y2="5.53433" gradientUnits="userSpaceOnUse">
<stop stop-color="#FFD945" stop-opacity="0"/>
<stop offset="1" stop-color="#FBED21"/>
</linearGradient>
<linearGradient id="paint5_linear_149_4724" x1="5.5409" y1="13.9878" x2="14.1062" y2="17.394" gradientUnits="userSpaceOnUse">
<stop stop-color="#F35227" stop-opacity="0"/>
<stop offset="1" stop-color="#F35227"/>
</linearGradient>
</defs>
</svg>
