<?xml version="1.0" encoding="UTF-8" standalone="no"?>
<!-- Generator: Adobe Illustrator 19.0.0, SVG Export Plug-In . SVG Version: 6.00 Build 0)  -->

<svg
   version="1.1"
   id="Capa_1"
   x="0px"
   y="0px"
   viewBox="0 0 426.70721 511.98663"
   xml:space="preserve"
   sodipodi:docname="office-color.svg"
   width="426.70721"
   height="511.98663"
   inkscape:version="1.1.1 (eb90963e84, 2021-10-02)"
   xmlns:inkscape="http://www.inkscape.org/namespaces/inkscape"
   xmlns:sodipodi="http://sodipodi.sourceforge.net/DTD/sodipodi-0.dtd"
   xmlns="http://www.w3.org/2000/svg"
   xmlns:svg="http://www.w3.org/2000/svg"><defs
   id="defs37" /><sodipodi:namedview
   id="namedview35"
   pagecolor="#ffffff"
   bordercolor="#666666"
   borderopacity="1.0"
   inkscape:pageshadow="2"
   inkscape:pageopacity="0.0"
   inkscape:pagecheckerboard="0"
   showgrid="false"
   fit-margin-top="0"
   fit-margin-left="0"
   fit-margin-right="0"
   fit-margin-bottom="0"
   inkscape:zoom="1.6309008"
   inkscape:cx="122.01846"
   inkscape:cy="324.36063"
   inkscape:window-width="1920"
   inkscape:window-height="1013"
   inkscape:window-x="0"
   inkscape:window-y="30"
   inkscape:window-maximized="1"
   inkscape:current-layer="Capa_1" />
<path
   style="fill:#ff5722"
   d="M 418.96221,43.079625 269.62921,0.41362489 c -2.325,-0.667 -4.807,-0.524 -7.04,0.405 L 6.5892149,107.48562 c -3.965,1.659 -6.54700002,5.536 -6.54900002,9.835 v 277.333 c 0,5.85 4.71100002,10.608 10.56000012,10.667 -5.8910001,0.036 -10.63700012,4.842 -10.60000012249,10.732 0.0280000025,4.584 2.98200002249,8.637 7.33600002249,10.068 l 255.9999951,85.333 c 1.089,0.352 2.226,0.532 3.371,0.533 0.989,-0.006 1.973,-0.15 2.923,-0.427 l 149.333,-42.667 c 4.576,-1.304 7.736,-5.481 7.744,-10.24 V 53.319625 c -0.009,-4.758 -3.168,-8.936 -7.745,-10.24 z M 15.485215,404.18962 l 64,-32 c 3.609,-1.808 5.888,-5.499 5.888,-9.536 v -226.326 L 277.37321,88.327625 V 446.21562 l -265.045995,-40.768 c -0.501,-0.084 -1.007,-0.127 -1.515,-0.128 1.623,-0.021 3.22,-0.407 4.673,-1.13 z"
   id="path2" />
<g
   id="g4"
   transform="translate(-42.640785,-3.7511318e-4)">
</g>
<g
   id="g6"
   transform="translate(-42.640785,-3.7511318e-4)">
</g>
<g
   id="g8"
   transform="translate(-42.640785,-3.7511318e-4)">
</g>
<g
   id="g10"
   transform="translate(-42.640785,-3.7511318e-4)">
</g>
<g
   id="g12"
   transform="translate(-42.640785,-3.7511318e-4)">
</g>
<g
   id="g14"
   transform="translate(-42.640785,-3.7511318e-4)">
</g>
<g
   id="g16"
   transform="translate(-42.640785,-3.7511318e-4)">
</g>
<g
   id="g18"
   transform="translate(-42.640785,-3.7511318e-4)">
</g>
<g
   id="g20"
   transform="translate(-42.640785,-3.7511318e-4)">
</g>
<g
   id="g22"
   transform="translate(-42.640785,-3.7511318e-4)">
</g>
<g
   id="g24"
   transform="translate(-42.640785,-3.7511318e-4)">
</g>
<g
   id="g26"
   transform="translate(-42.640785,-3.7511318e-4)">
</g>
<g
   id="g28"
   transform="translate(-42.640785,-3.7511318e-4)">
</g>
<g
   id="g30"
   transform="translate(-42.640785,-3.7511318e-4)">
</g>
<g
   id="g32"
   transform="translate(-42.640785,-3.7511318e-4)">
</g>
</svg>
