<svg width="20" height="20" viewBox="0 0 20 20" fill="none" xmlns="http://www.w3.org/2000/svg">
<g clip-path="url(#clip0_142_18975)">
<path d="M19.4825 7.29257L13.3042 6.39478L10.5412 0.79638C10.4306 0.572235 10.2153 0.459961 10 0.459961L10.0008 16.5646L15.526 19.4697C15.969 19.7023 16.4861 19.3264 16.4016 18.8334L15.3465 12.6797L19.8169 8.32195C20.1755 7.97265 19.9775 7.3646 19.4825 7.29257Z" fill="#FFB820"/>
<path d="M14.0491 12.2584C14.0491 12.2584 15.002 17.8129 15.0052 17.8314C15.002 17.831 10.0777 16.5839 10.0008 16.5646C10 16.5642 4.47404 19.4697 4.47404 19.4697C4.03098 19.7023 3.51387 19.3264 3.59838 18.8334L4.65351 12.6797L0.183081 8.32195C-0.175471 7.97265 0.0225168 7.3646 0.517488 7.29257L6.69577 6.39478L9.45875 0.79638C9.56942 0.572235 9.78471 0.459961 10 0.459961L12.5026 7.4982L18.0986 8.31149L14.0491 12.2584Z" fill="#FFD06A"/>
</g>
<defs>
<clipPath id="clip0_142_18975">
<rect width="20" height="20" fill="white"/>
</clipPath>
</defs>
</svg>
