<svg width="28" height="28" viewBox="0 0 28 28" fill="none" xmlns="http://www.w3.org/2000/svg">
<path d="M14 27.9715C21.7163 27.9715 27.9715 21.7163 27.9715 14.0001C27.9715 6.28381 21.7163 0.0285645 14 0.0285645C6.28381 0.0285645 0.0285645 6.28381 0.0285645 14.0001C0.0285645 21.7163 6.28381 27.9715 14 27.9715Z" fill="#FC3F1D"/>
<path d="M19.0555 22.7706H15.9885V7.60138H14.6222C12.1177 7.60138 10.8059 8.8536 10.8059 10.7229C10.8059 12.8436 11.7107 13.8262 13.5826 15.0784L15.1252 16.118L10.6918 22.768H7.39404L11.384 16.831C9.0896 15.1925 7.79849 13.5929 7.79849 10.894C7.79849 7.521 10.15 5.22656 14.6014 5.22656H19.0348V22.7654H19.0555V22.7706Z" fill="white"/>
</svg>
