<?xml version="1.0" encoding="UTF-8" standalone="no"?><svg viewBox="0 0 512 512" xmlns="http://www.w3.org/2000/svg" xmlns:xlink="http://www.w3.org/1999/xlink"><style>:root>svg{display:none}:root>svg:target{display:block}</style><svg viewBox="0 0 512 512" id="add-to-cart" xmlns="http://www.w3.org/2000/svg"><path d="M472 452c0 11.046-8.954 20-20 20h-20v20c0 11.046-8.954 20-20 20s-20-8.954-20-20v-20h-20c-11.046 0-20-8.954-20-20s8.954-20 20-20h20v-20c0-11.046 8.954-20 20-20s20 8.954 20 20v20h20c11.046 0 20 8.954 20 20zm0-312v192c0 11.046-8.954 20-20 20s-20-8.954-20-20V160h-40v60c0 11.046-8.954 20-20 20s-20-8.954-20-20v-60H160v60c0 11.046-8.954 20-20 20s-20-8.954-20-20v-60H80v312h212c11.046 0 20 8.954 20 20s-8.954 20-20 20H60c-11.046 0-20-8.954-20-20V140c0-11.046 8.954-20 20-20h60.946C128.891 52.523 186.423 0 256 0s127.109 52.523 135.054 120H452c11.046 0 20 8.954 20 20zm-121.341-20c-7.64-45.345-47.176-80-94.659-80s-87.019 34.655-94.659 80z"/></svg><svg viewBox="0 0 512 512" id="add-to-cart-white" xmlns="http://www.w3.org/2000/svg"><path d="M472 452c0 11.046-8.954 20-20 20h-20v20c0 11.046-8.954 20-20 20s-20-8.954-20-20v-20h-20c-11.046 0-20-8.954-20-20s8.954-20 20-20h20v-20c0-11.046 8.954-20 20-20s20 8.954 20 20v20h20c11.046 0 20 8.954 20 20zm0-312v192c0 11.046-8.954 20-20 20s-20-8.954-20-20V160h-40v60c0 11.046-8.954 20-20 20s-20-8.954-20-20v-60H160v60c0 11.046-8.954 20-20 20s-20-8.954-20-20v-60H80v312h212c11.046 0 20 8.954 20 20s-8.954 20-20 20H60c-11.046 0-20-8.954-20-20V140c0-11.046 8.954-20 20-20h60.946C128.891 52.523 186.423 0 256 0s127.109 52.523 135.054 120H452c11.046 0 20 8.954 20 20zm-121.341-20c-7.64-45.345-47.176-80-94.659-80s-87.019 34.655-94.659 80z" fill="#fff"/></svg><svg viewBox="0 0 6.923 8.467" id="antivirus" xmlns="http://www.w3.org/2000/svg"><path d="M3.462 0C2.16 1.367 0 1.058 0 1.058v3.704c0 2.183 3.462 3.705 3.462 3.705s3.461-1.522 3.461-3.704V1.058S4.763 1.368 3.462 0z" fill="#464a58"/><path d="M3.211 5.881L1.676 4.682l.326-.417 1.09.851L4.86 2.512l.438.297z" fill="#fff"/></svg><svg viewBox="0 0 356 437.185" id="basket" xmlns="http://www.w3.org/2000/svg"><path d="M266.85 104.609V80.09C266.85 35.928 226.992 0 178 0S89.15 35.928 89.15 80.09v24.519H0v332.576h356V104.609zM119.15 80.09c0-29.25 26.4-53.048 58.85-53.048s58.85 23.798 58.85 53.048v24.519h-117.7zM326 410.142H30v-278.49h59.15V163.2h30v-31.55h117.7v31.55h30v-31.55H326z"/></svg><svg viewBox="0 0 356 437.185" id="basket-white" xmlns="http://www.w3.org/2000/svg"><path d="M266.85 104.609V80.09C266.85 35.928 226.992 0 178 0S89.15 35.928 89.15 80.09v24.519H0v332.576h356V104.609zM119.15 80.09c0-29.25 26.4-53.048 58.85-53.048s58.85 23.798 58.85 53.048v24.519h-117.7zM326 410.142H30v-278.49h59.15V163.2h30v-31.55h117.7v31.55h30v-31.55H326z" fill="#fff"/></svg><svg fill="none" viewBox="0 0 20 21" id="clock" xmlns="http://www.w3.org/2000/svg"><path d="M8.127 2.018c-.456 0-.826-.336-.826-.75 0-.415.37-.75.826-.75h3.894c.456 0 .826.335.826.75 0 .414-.37.75-.826.75H8.127zM4.306 2.47a.702.702 0 010 1.06l-2.753 2.5a.886.886 0 01-1.169 0 .702.702 0 010-1.06l2.754-2.5a.886.886 0 011.168 0zM10.33 4.75c-4.41 0-7.985 3.246-7.985 7.25s3.575 7.25 7.984 7.25c4.41 0 7.985-3.246 7.985-7.25 0-.414.37-.75.826-.75.456 0 .826.336.826.75 0 4.832-4.315 8.75-9.637 8.75C5.008 20.75.694 16.832.694 12c0-4.833 4.315-8.75 9.636-8.75.457 0 .826.336.826.75s-.37.75-.825.75z" fill="#464A58"/><path d="M16.043 7.364a.7.7 0 00-.068-.99.889.889 0 00-1.09-.062l-3.492 2.465-2.281 1.48c-.487.316-.777.826-.777 1.37 0 .93.83 1.683 1.855 1.683.599 0 1.16-.262 1.509-.705l1.629-2.071 2.715-3.17z" fill="#464A58"/></svg><svg fill="none" viewBox="0 0 12 12" id="document" xmlns="http://www.w3.org/2000/svg"><path d="M8.813 6.733c0-.246-.252-.446-.563-.446h-4.5c-.31 0-.563.2-.563.446 0 .247.252.446.563.446h4.5c.31 0 .563-.2.563-.446zM8.813 9.113c0-.247-.252-.447-.563-.447h-4.5c-.31 0-.563.2-.563.447 0 .246.252.446.563.446h4.5c.31 0 .563-.2.563-.446z" fill="#464A58"/><path fill-rule="evenodd" clip-rule="evenodd" d="M2.25.339C1.11.339.187 1.07.187 1.975v8.327c0 .904.924 1.636 2.063 1.636h7.5c1.14 0 2.063-.732 2.063-1.636V3.74a.91.91 0 00-.266-.628L9.3.752C9.05.492 8.663.34 8.252.34H2.25zm-.938 1.636c0-.411.42-.744.938-.744h5.438v2.616c0 .246.251.446.562.446h2.438v6.01c0 .41-.42.743-.938.743h-7.5c-.518 0-.938-.333-.938-.744V1.975z" fill="#464A58"/></svg><svg fill="none" viewBox="0 0 12 12" id="download" xmlns="http://www.w3.org/2000/svg"><path fill-rule="evenodd" clip-rule="evenodd" d="M5.053.933c-.58 0-1.064.352-1.114.81a17.529 17.529 0 00-.08 2.882l-.19.01L2.55 4.7c-.714.042-1.113.673-.727 1.151.822 1.02 1.881 1.908 3.121 2.614l.448.255c.363.207.851.207 1.214 0l.448-.255c1.24-.706 2.3-1.593 3.121-2.614.386-.478-.013-1.11-.727-1.15l-1.117-.065a41.405 41.405 0 00-.19-.01c.052-.962.025-1.924-.08-2.883-.051-.458-.535-.81-1.115-.81H5.053zm-.042 4.083c-.085-1.063-.07-2.13.048-3.19H6.94a16.82 16.82 0 01.048 3.19c-.01.12.041.237.142.326.1.089.241.142.392.148.242.01.485.022.727.036l.811.046c-.72.841-1.62 1.575-2.662 2.169L6 7.968l-.398-.227a10.019 10.019 0 01-2.663-2.169l.811-.046c.243-.014.485-.026.727-.036a.63.63 0 00.392-.148c.1-.09.152-.206.142-.326z" fill="#464A58"/><path d="M1.313 9.112c0-.246-.252-.446-.563-.446-.31 0-.563.2-.563.446v1.19c0 .575.588 1.04 1.313 1.04h9c.725 0 1.313-.466 1.313-1.04v-1.19c0-.246-.252-.446-.563-.446-.31 0-.563.2-.563.446v1.19c0 .082-.083.148-.187.148h-9c-.104 0-.188-.066-.188-.148v-1.19z" fill="#464A58"/></svg><svg fill="none" viewBox="0 0 17 22" id="hot-discount" xmlns="http://www.w3.org/2000/svg"><path d="M13.16 2.485c-.142.223-.32.525-.513.9a.26.26 0 01-.457.013C11.017 1.41 9.613 0 8.103 0 5.698 0 3.56 3.579 2.2 7.371c-.184.514-.92.512-1.09-.008a2.071 2.071 0 01-.007-.024c-.072-.227-.4-.216-.462.014-.562 2.088-1.528 7.22 1.157 11.155A7.435 7.435 0 008.103 22a7.418 7.418 0 005.384-2.308c.612-.737 2.804-2.808 2.804-7.309 0-5.812-2.585-7.384-2.797-9.819-.015-.172-.24-.225-.333-.08z" fill="url(#ipaint0_radial_149_4724)"/><path d="M8.145 21.489a7.186 7.186 0 100-14.373 7.186 7.186 0 000 14.373z" fill="url(#ipaint1_linear_149_4724)"/><path d="M11.839 8.137a7.186 7.186 0 01-9.859 9.859 7.187 7.187 0 109.859-9.859z" fill="url(#ipaint2_linear_149_4724)"/><path d="M8.145 20.926a6.624 6.624 0 100-13.247 6.624 6.624 0 000 13.247z" fill="url(#ipaint3_linear_149_4724)"/><path d="M3.918 13.289v-1.582c0-1.103.724-1.504 1.67-1.504.937 0 1.672.401 1.672 1.504v1.582c0 1.103-.735 1.504-1.671 1.504-.947 0-1.671-.401-1.671-1.504zm2.228-1.582c0-.368-.212-.535-.557-.535-.345 0-.546.167-.546.535v1.582c0 .367.2.534.546.534.345 0 .557-.167.557-.534v-1.582zm4.567-1.37a.483.483 0 01-.045.212l-3.92 8.031c-.079.167-.29.279-.502.279a.616.616 0 01-.624-.59.5.5 0 01.056-.212l3.91-8.032c.089-.19.267-.278.468-.278.312 0 .657.233.657.59zM9.03 16.876v-1.582c0-1.103.724-1.504 1.67-1.504.936 0 1.672.401 1.672 1.504v1.582c0 1.102-.736 1.503-1.671 1.503-.947 0-1.671-.4-1.671-1.503zm2.228-1.582c0-.368-.212-.535-.557-.535-.345 0-.546.167-.546.535v1.582c0 .367.2.534.546.534.345 0 .557-.167.557-.534v-1.582z" fill="#fff"/><path d="M13.677 15.331a5.526 5.526 0 11-11.053 0C2.624 12.28 5.098 4.52 8.15 4.52c3.053 0 5.527 7.76 5.527 10.811z" fill="url(#ipaint4_linear_149_4724)"/><path d="M12.164 16.844a4.014 4.014 0 11-8.028 0c0-2.217 1.797-7.853 4.014-7.853 2.217 0 4.014 5.636 4.014 7.853z" fill="url(#ipaint5_linear_149_4724)"/><defs><linearGradient id="ipaint1_linear_149_4724" x1="5.409" y1="11.566" x2="11.203" y2="17.36" gradientUnits="userSpaceOnUse"><stop stop-color="#FF7044"/><stop offset="1" stop-color="#F82814"/></linearGradient><linearGradient id="ipaint2_linear_149_4724" x1="9.376" y1="15.146" x2="22.058" y2="11.426" gradientUnits="userSpaceOnUse"><stop stop-color="#F82814" stop-opacity="0"/><stop offset="1" stop-color="#C0272D"/></linearGradient><linearGradient id="ipaint3_linear_149_4724" x1="9.507" y1="16.554" x2=".883" y2="2.293" gradientUnits="userSpaceOnUse"><stop stop-color="#FF7044" stop-opacity="0"/><stop offset="1" stop-color="#FFA325"/></linearGradient><linearGradient id="ipaint4_linear_149_4724" x1="9.333" y1="15.479" x2="2.328" y2="5.534" gradientUnits="userSpaceOnUse"><stop stop-color="#FFD945" stop-opacity="0"/><stop offset="1" stop-color="#FBED21"/></linearGradient><linearGradient id="ipaint5_linear_149_4724" x1="5.541" y1="13.988" x2="14.106" y2="17.394" gradientUnits="userSpaceOnUse"><stop stop-color="#F35227" stop-opacity="0"/><stop offset="1" stop-color="#F35227"/></linearGradient><radialGradient id="ipaint0_radial_149_4724" cx="0" cy="0" r="1" gradientUnits="userSpaceOnUse" gradientTransform="translate(4.61 8.381) scale(12.341)"><stop stop-color="#FFD945"/><stop offset=".417" stop-color="#FFD744"/><stop offset=".628" stop-color="#FFCF3F"/><stop offset=".793" stop-color="#FFC237"/><stop offset=".933" stop-color="#FFAF2C"/><stop offset="1" stop-color="#FFA325"/></radialGradient></defs></svg><svg viewBox="0 0 7.673 7.143" id="microsoft" xmlns="http://www.w3.org/2000/svg"><defs><clipPath id="ja"><path fill="#fff" d="M0 0h29v27H0z"/></clipPath></defs><g clip-path="url(#ja)" transform="matrix(.26458 0 0 .26458 0 0)" fill="#464a58"><path d="M11.7 24.666L0 23.089V14.35h11.7zM29 12.651H13.568l.006-10.57L29 0zM29 27l-15.438-2.082.019-10.566H29zM11.7 12.65H0V3.912l11.7-1.578z"/></g></svg><svg viewBox="0 0 291.346 291.346" id="microsoft-color" xmlns="http://www.w3.org/2000/svg"><path d="M117.547 266.156L0 249.141v-94.296h117.547v111.311z" fill="#26a6d1"/><path d="M291.346 136.51H136.31l.055-114.06L291.346.009V136.51z" fill="#3db39e"/><path d="M291.346 291.337l-155.091-22.459.182-114.015h154.909v136.474z" fill="#f4b459"/><path d="M117.547 136.51H0V42.205l117.547-17.024V136.51z" fill="#e2574c"/></svg><svg viewBox="0 0 6.879 8.467" id="office" xmlns="http://www.w3.org/2000/svg"><path d="M6.754.712L4.347.007a.164.164 0 00-.114.007L.106 1.778a.177.177 0 00-.105.162v4.587c0 .096.076.175.17.176A.174.174 0 000 6.881c0 .075.048.142.118.166l4.127 1.411a.168.168 0 00.102.002l2.407-.705a.176.176 0 00.125-.17V.882a.176.176 0 00-.125-.169zM.25 6.684l1.031-.53a.177.177 0 00.095-.157V2.255l3.096-.794v5.918L.199 6.705a.2.2 0 00-.025-.002.174.174 0 00.076-.019z" fill="#464a58"/></svg><svg viewBox="0 0 426.707 511.987" id="office-color" xmlns="http://www.w3.org/2000/svg"><path d="M418.962 43.08L269.63.414a10.668 10.668 0 00-7.04.405l-256 106.667A10.666 10.666 0 00.04 117.32v277.333c0 5.85 4.711 10.608 10.56 10.667-5.89.036-10.637 4.842-10.6 10.732a10.667 10.667 0 007.336 10.068l256 85.333a10.99 10.99 0 003.371.533c.99-.006 1.973-.15 2.923-.427l149.333-42.667a10.667 10.667 0 007.744-10.24V53.32a10.669 10.669 0 00-7.745-10.24zM15.485 404.19l64-32a10.666 10.666 0 005.888-9.536V136.328l192-48v357.888L12.327 405.448a9.266 9.266 0 00-1.515-.128 10.802 10.802 0 004.673-1.13z" fill="#ff5722"/></svg><svg viewBox="0 0 50 50" id="search" xmlns="http://www.w3.org/2000/svg"><path d="M21 3C11.602 3 4 10.602 4 20s7.602 17 17 17c3.355 0 6.46-.984 9.094-2.656l12.281 12.281 4.25-4.25L34.5 30.281C36.68 27.421 38 23.88 38 20c0-9.398-7.602-17-17-17zm0 4c7.2 0 13 5.8 13 13s-5.8 13-13 13S8 27.2 8 20 13.8 7 21 7z" fill-opacity=".5"/></svg><svg viewBox="0 0 512 512" id="shield-color" xmlns="http://www.w3.org/2000/svg"><path d="M256 0C177.328 82.672 46.672 64 46.672 64v224C46.672 420 256 512 256 512s209.328-92 209.328-224V64S334.672 82.672 256 0z" fill="#32bea6"/><path fill="#fff" d="M240.88 355.664l-92.832-72.512 19.68-25.216 65.904 51.44 106.944-157.488 26.464 17.968z"/></svg><svg fill="none" viewBox="0 0 20 20" id="star" xmlns="http://www.w3.org/2000/svg"><g clip-path="url(#pclip0_142_18975)"><path d="M19.483 7.293l-6.179-.898L10.541.796A.597.597 0 0010 .46v16.105l5.526 2.905a.604.604 0 00.876-.637l-1.056-6.153 4.47-4.358a.603.603 0 00-.333-1.03z" fill="#FFB820"/><path d="M14.05 12.258l.955 5.573-5.004-1.266-5.527 2.905a.604.604 0 01-.876-.637l1.056-6.153-4.47-4.358a.603.603 0 01.333-1.03l6.179-.897L9.459.796A.597.597 0 0110 .46l2.503 7.038 5.596.813-4.05 3.947z" fill="#FFD06A"/></g><defs><clipPath id="pclip0_142_18975"><path fill="#fff" d="M0 0h20v20H0z"/></clipPath></defs></svg><svg fill="none" viewBox="0 0 20 20" id="star-empty" xmlns="http://www.w3.org/2000/svg"><g clip-path="url(#qclip0_142_18987)"><path d="M19.483 7.293l-6.179-.898L10.541.796A.597.597 0 0010 .46v16.105l5.526 2.905a.604.604 0 00.876-.637l-1.056-6.153 4.47-4.358a.603.603 0 00-.333-1.03z" fill="#A4A4A4"/><path d="M14.05 12.258l.955 5.573-5.004-1.266-5.527 2.905a.604.604 0 01-.876-.637l1.056-6.153-4.47-4.358a.603.603 0 01.333-1.03l6.179-.897L9.459.796A.597.597 0 0110 .46l2.503 7.038 5.596.813-4.05 3.947z" fill="#878787"/></g><defs><clipPath id="qclip0_142_18987"><path fill="#fff" d="M0 0h20v20H0z"/></clipPath></defs></svg><svg fill="none" viewBox="0 0 18 20" id="surprise" xmlns="http://www.w3.org/2000/svg"><path fill-rule="evenodd" clip-rule="evenodd" d="M3.25 3.5A3.25 3.25 0 019 1.423a3.25 3.25 0 015.24 3.827H15A2.75 2.75 0 0117.75 8v2a1.75 1.75 0 01-1.281 1.687c.144 1.826.06 3.665-.25 5.473a2.459 2.459 0 01-2.15 2.028l-.915.102a37.402 37.402 0 01-8.309 0l-.914-.102a2.459 2.459 0 01-2.15-2.028 22.111 22.111 0 01-.25-5.473A1.75 1.75 0 01.25 10V8A2.75 2.75 0 013 5.25h.76a3.235 3.235 0 01-.51-1.75zm5 0a1.75 1.75 0 10-3.5 0 1.75 1.75 0 003.5 0zm3.25 1.75a1.75 1.75 0 100-3.5 1.75 1.75 0 000 3.5zM1.75 8c0-.69.56-1.25 1.25-1.25h5.25v3.5H2a.25.25 0 01-.25-.25V8zm8 3.75h5.219c.14 1.72.064 3.453-.228 5.156a.959.959 0 01-.839.791l-.914.103c-1.076.12-2.157.191-3.238.214V11.75zm0-1.5H16a.25.25 0 00.25-.25V8c0-.69-.56-1.25-1.25-1.25H9.75v3.5zm-1.5 1.5v6.264a35.905 35.905 0 01-3.238-.214l-.914-.103a.959.959 0 01-.839-.79 20.612 20.612 0 01-.228-5.157H8.25z" fill="#464A58"/></svg><svg fill="none" viewBox="0 0 218 162" id="thankyou_icon" xmlns="http://www.w3.org/2000/svg"><path d="M184.422.573L85.707 99.29a6.814 6.814 0 01-9.635 0L33.577 56.794 0 90.372l64.1 64.101a23.742 23.742 0 0033.578 0L218 34.15 184.422.573z" fill="#A5EB78"/></svg><svg fill="none" viewBox="0 0 28 28" id="trustpilot_icon" xmlns="http://www.w3.org/2000/svg"><path d="M14 27.971c7.716 0 13.971-6.255 13.971-13.97C27.971 6.283 21.716.028 14 .028S.029 6.284.029 14 6.284 27.971 14 27.971z" fill="#219653"/><path d="M14 18.346l4.258-1.08 1.78 5.484L14 18.346zm9.8-7.088h-7.496L14 4.2l-2.304 7.058H4.2l6.067 4.375-2.305 7.059 6.067-4.375 3.733-2.684 6.038-4.375z" fill="#fff"/></svg><svg fill="none" viewBox="0 0 18 20" id="warranty" xmlns="http://www.w3.org/2000/svg"><path fill-rule="evenodd" clip-rule="evenodd" d="M9 4.25a3.25 3.25 0 100 6.5 3.25 3.25 0 000-6.5zM7.25 7.5a1.75 1.75 0 113.5 0 1.75 1.75 0 01-3.5 0z" fill="#464A58"/><path fill-rule="evenodd" clip-rule="evenodd" d="M9 .25a7.25 7.25 0 00-6.063 11.226L.35 15.956a.75.75 0 00.795 1.11l2.614-.514.861 2.52a.75.75 0 001.36.133l2.58-4.468a7.31 7.31 0 00.88 0l2.58 4.468a.75.75 0 001.36-.134l.858-2.526 2.616.52a.75.75 0 00.796-1.11l-2.586-4.479A7.25 7.25 0 009 .25zM3.25 7.5a5.75 5.75 0 1111.5 0 5.75 5.75 0 01-11.5 0zm3.734 6.966a7.243 7.243 0 01-3.027-1.757l-1.482 2.567 1.637-.322a.75.75 0 01.854.493l.54 1.579 1.478-2.56zm5.508 2.556l-1.476-2.556a7.244 7.244 0 003.027-1.757l1.48 2.563-1.638-.326a.75.75 0 00-.856.495l-.537 1.58z" fill="#464A58"/></svg><svg viewBox="0 0 22.225 8.467" id="windows+office" xmlns="http://www.w3.org/2000/svg"><defs><clipPath id="va"><path fill="#fff" transform="translate(0 2)" d="M0 0h29v27H0z"/></clipPath></defs><g fill="#464a58"><path d="M13.324 3.772h-1.003V2.718h-1.067v1.054h-1.01v1.003h1.01v1.08h1.067v-1.08h1.003zM22.1.712L19.693.007a.164.164 0 00-.114.007l-4.127 1.764a.177.177 0 00-.106.162v4.587c0 .096.076.175.17.176a.174.174 0 00-.17.178c0 .075.048.142.118.166l4.127 1.411a.168.168 0 00.102.002l2.407-.705a.176.176 0 00.125-.17V.882A.176.176 0 0022.1.713zm-6.505 5.972l1.032-.53a.177.177 0 00.095-.157V2.255l3.096-.794v5.918l-4.273-.674a.2.2 0 00-.025-.002.174.174 0 00.075-.019z"/><g clip-path="url(#va)" transform="matrix(.26458 0 0 .26458 0 0)"><path d="M11.7 26.666L0 25.089V16.35h11.7zM29 14.651H13.568l.005-10.57L29 2zM29 29l-15.438-2.082.019-10.566H29zM11.7 14.65H0V5.912l11.7-1.577z"/></g></g></svg><svg fill="none" viewBox="0 0 28 28" id="yandex_icon" xmlns="http://www.w3.org/2000/svg"><path d="M14 27.971c7.716 0 13.971-6.255 13.971-13.97C27.971 6.283 21.716.028 14 .028S.029 6.284.029 14 6.284 27.971 14 27.971z" fill="#FC3F1D"/><path d="M19.055 22.77H15.99V7.602h-1.367c-2.504 0-3.816 1.253-3.816 3.122 0 2.12.905 3.103 2.777 4.355l1.542 1.04-4.433 6.65H7.394l3.99-5.937c-2.294-1.638-3.586-3.238-3.586-5.937 0-3.373 2.352-5.667 6.803-5.667h4.434v17.538h.02v.006z" fill="#fff"/></svg></svg>